<svg width="23" height="20" viewBox="0 0 23 20" fill="none" xmlns="http://www.w3.org/2000/svg">
<path d="M11.2036 3.75C11.2036 5.82107 9.52468 7.5 7.45361 7.5C5.38255 7.5 3.70361 5.82107 3.70361 3.75C3.70361 1.67893 5.38255 0 7.45361 0C9.52468 0 11.2036 1.67893 11.2036 3.75Z" fill="#6DDA8B"/>
<path d="M0.722713 18.035C0.226082 17.717 -0.0615775 17.1513 0.0111753 16.5661C0.47131 12.865 3.62791 10 7.45349 10C11.2791 10 14.4357 12.8642 14.8958 16.5652C14.9686 17.1504 14.6809 17.7161 14.1843 18.0341C12.2414 19.2781 9.93166 20 7.45349 20C4.97533 20 2.6656 19.2789 0.722713 18.035Z" fill="#6DDA8B"/>
<path d="M19.0161 4.6875C19.0161 4.16973 18.5964 3.75 18.0786 3.75C17.5608 3.75 17.1411 4.16973 17.1411 4.6875V7.1875H14.6411C14.1233 7.1875 13.7036 7.60723 13.7036 8.125C13.7036 8.64277 14.1233 9.0625 14.6411 9.0625H17.1411V11.5625C17.1411 12.0803 17.5608 12.5 18.0786 12.5C18.5964 12.5 19.0161 12.0803 19.0161 11.5625V9.0625H21.5161C22.0339 9.0625 22.4536 8.64277 22.4536 8.125C22.4536 7.60723 22.0339 7.1875 21.5161 7.1875H19.0161V4.6875Z" fill="#6DDA8B"/>
</svg>
