<svg width="29" height="30" viewBox="0 0 29 30" fill="none" xmlns="http://www.w3.org/2000/svg" stroke="currentColor">
<path d="M14.4951 24.9443C20.1791 24.9443 24.7868 20.3944 24.7868 14.7818C24.7868 9.16923 20.1791 4.61932 14.4951 4.61932C8.81122 4.61932 4.20349 9.16923 4.20349 14.7818C4.20349 17.4554 5.24904 19.8879 6.95842 21.7022C7.36566 22.1345 7.64075 22.7016 7.53045 23.2852C7.35508 24.2128 6.96463 25.0562 6.4171 25.7524C6.59549 25.7868 6.7764 25.8137 6.95898 25.8329C7.18093 25.8562 7.40623 25.8682 7.63404 25.8682C9.10003 25.8682 10.4587 25.3728 11.5736 24.529C12.4998 24.7993 13.4803 24.9443 14.4951 24.9443Z" stroke="currentColor" stroke-width="1.5" stroke-linecap="round" stroke-linejoin="round"/>
</svg>
 