<svg width="17" height="16" viewBox="0 0 17 16" fill="none" xmlns="http://www.w3.org/2000/svg">
<path fill-rule="evenodd" clip-rule="evenodd" d="M11.8333 2.66659C11.8333 1.93021 11.2364 1.33325 10.5 1.33325H3.83333C3.09695 1.33325 2.5 1.93021 2.5 2.66659V10.6666C2.5 11.403 3.09695 11.9999 3.83333 11.9999H10.5C11.2364 11.9999 11.8333 11.403 11.8333 10.6666V2.66659ZM10.5 2.66659H3.83333V10.6666H10.5V2.66659Z" fill="#7A7A7A"/>
<path d="M13.1663 4.66663V12C13.1663 12.7364 12.5694 13.3333 11.833 13.3333H5.83299C5.4648 13.3333 5.16632 13.6318 5.16632 14C5.16632 14.3682 5.4648 14.6666 5.83299 14.6666H11.833C13.3057 14.6666 14.4997 13.4727 14.4997 12V4.66663C14.4997 4.29844 14.2012 3.99996 13.833 3.99996C13.4648 3.99996 13.1663 4.29844 13.1663 4.66663Z" fill="#7A7A7A"/>
</svg>
