<svg width="72" height="62" viewBox="0 0 72 62" fill="none" xmlns="http://www.w3.org/2000/svg">
<path d="M6.42857 0C2.87817 0 0 2.89149 0 6.45833V9.04167C0 12.6085 2.87817 15.5 6.42857 15.5H65.5714C69.1218 15.5 72 12.6085 72 9.04167V6.45833C72 2.8915 69.1218 0 65.5714 0H6.42857Z" fill="#5D5FEF"/>
<path fill-rule="evenodd" clip-rule="evenodd" d="M5.44043 20.6667L7.29109 52.2735C7.61089 57.7353 12.113 62 17.5591 62H54.4399C59.886 62 64.3881 57.7353 64.7079 52.2735L66.5586 20.6667H5.44043ZM36 25.8333C37.4202 25.8333 38.5714 26.9899 38.5714 28.4167V45.4299L44.4674 39.5066C45.4716 38.4978 47.0998 38.4978 48.104 39.5066C49.1082 40.5155 49.1082 42.1512 48.104 43.16L37.8183 53.4934C36.8141 54.5022 35.1859 54.5022 34.1817 53.4934L23.896 43.16C22.8918 42.1512 22.8918 40.5155 23.896 39.5066C24.9002 38.4978 26.5284 38.4978 27.5326 39.5066L33.4286 45.4299V28.4167C33.4286 26.9899 34.5798 25.8333 36 25.8333Z" fill="#5D5FEF"/>
</svg>
