<svg width="26" height="26" viewBox="0 0 26 26" fill="none" xmlns="http://www.w3.org/2000/svg">
<path fill-rule="evenodd" clip-rule="evenodd" d="M0 13C0 5.8203 5.8203 0 13 0C20.1797 0 26 5.8203 26 13C26 20.1797 20.1797 26 13 26C5.8203 26 0 20.1797 0 13ZM13 8C13.5523 8 14 8.44771 14 9V14C14 14.5523 13.5523 15 13 15C12.4477 15 12 14.5523 12 14V9C12 8.44771 12.4477 8 13 8ZM13 19C13.5523 19 14 18.5523 14 18C14 17.4477 13.5523 17 13 17C12.4477 17 12 17.4477 12 18C12 18.5523 12.4477 19 13 19Z" fill="#FF4A4A"/>
</svg>
