<svg width="86" height="20" viewBox="0 0 86 20" fill="none" xmlns="http://www.w3.org/2000/svg">
<path d="M0.484 19V7.506H4.026V19H0.484ZM2.304 4.538C1.716 4.538 1.21667 4.33267 0.806 3.922C0.404667 3.51133 0.204 3.02133 0.204 2.452C0.204 1.88267 0.409333 1.388 0.82 0.967999C1.23067 0.547999 1.72533 0.337999 2.304 0.337999C2.68667 0.337999 3.03667 0.435999 3.354 0.631999C3.67133 0.818666 3.928 1.07067 4.124 1.388C4.32 1.70533 4.418 2.06 4.418 2.452C4.418 3.02133 4.208 3.51133 3.788 3.922C3.37733 4.33267 2.88267 4.538 2.304 4.538ZM14.5967 7.17C15.3807 7.17 16.146 7.33333 16.8927 7.66C17.6393 7.97733 18.2507 8.486 18.7267 9.186C19.212 9.886 19.4547 10.8007 19.4547 11.93V19H15.8847V12.546C15.8847 11.6033 15.6607 10.9033 15.2127 10.446C14.774 9.98867 14.1953 9.76 13.4767 9.76C13.01 9.76 12.562 9.89067 12.1327 10.152C11.7127 10.404 11.3673 10.7587 11.0967 11.216C10.8353 11.664 10.7047 12.1773 10.7047 12.756V19H7.14866V7.506H10.7047V9.34C10.8073 9.02267 11.0407 8.696 11.4047 8.36C11.7687 8.024 12.2307 7.744 12.7907 7.52C13.3507 7.28667 13.9527 7.17 14.5967 7.17Z" fill="#297AFF"/>
<path d="M30.7157 8.78H40.0957V9.886C40.0957 11.202 39.8717 12.434 39.4237 13.582C38.985 14.7207 38.355 15.724 37.5337 16.592C36.7124 17.4507 35.737 18.1227 34.6077 18.608C33.4877 19.0933 32.251 19.336 30.8977 19.336C29.507 19.336 28.2377 19.0887 27.0897 18.594C25.9417 18.0993 24.9524 17.4133 24.1217 16.536C23.291 15.6587 22.647 14.6413 22.1897 13.484C21.7417 12.3173 21.5177 11.0713 21.5177 9.746C21.5177 8.43 21.7417 7.19333 22.1897 6.036C22.647 4.86933 23.291 3.852 24.1217 2.984C24.9524 2.10667 25.9417 1.42067 27.0897 0.926C28.2377 0.431332 29.507 0.183999 30.8977 0.183999C31.971 0.183999 32.9277 0.300666 33.7677 0.534C34.6077 0.767333 35.3404 1.08467 35.9657 1.486C36.6004 1.878 37.1464 2.31667 37.6037 2.802C38.0704 3.278 38.4577 3.75867 38.7657 4.244L35.4897 5.84C35.0417 5.18667 34.4444 4.62667 33.6977 4.16C32.9604 3.69333 32.027 3.46 30.8977 3.46C30.0577 3.46 29.283 3.628 28.5737 3.964C27.8737 4.29067 27.267 4.74333 26.7537 5.322C26.2497 5.90067 25.8577 6.57267 25.5777 7.338C25.2977 8.094 25.1577 8.89667 25.1577 9.746C25.1577 10.6047 25.2977 11.412 25.5777 12.168C25.8577 12.924 26.2497 13.596 26.7537 14.184C27.267 14.7627 27.8737 15.2153 28.5737 15.542C29.283 15.8687 30.0577 16.032 30.8977 16.032C31.663 16.032 32.3584 15.92 32.9837 15.696C33.609 15.472 34.1504 15.1547 34.6077 14.744C35.0744 14.3333 35.443 13.8527 35.7137 13.302C35.9844 12.742 36.1384 12.14 36.1757 11.496H30.7157V8.78ZM45.9341 19H42.3781V7.506H45.9341V9.368H45.8641C45.9295 9.144 46.1068 8.85933 46.3961 8.514C46.6948 8.16867 47.1055 7.86067 47.6281 7.59C48.1508 7.31 48.7808 7.17 49.5181 7.17C50.0501 7.17 50.5308 7.24933 50.9601 7.408C51.3988 7.55733 51.7115 7.70667 51.8981 7.856L50.4981 10.768C50.3768 10.6187 50.1481 10.4647 49.8121 10.306C49.4855 10.1473 49.0748 10.068 48.5801 10.068C47.9921 10.068 47.5021 10.2313 47.1101 10.558C46.7181 10.8753 46.4241 11.2673 46.2281 11.734C46.0321 12.1913 45.9341 12.6207 45.9341 13.022V19ZM58.5941 19.336C57.3714 19.336 56.2794 19.0747 55.3181 18.552C54.3661 18.0293 53.6194 17.3153 53.0781 16.41C52.5367 15.4953 52.2661 14.4547 52.2661 13.288C52.2661 12.1213 52.5367 11.0807 53.0781 10.166C53.6194 9.242 54.3661 8.514 55.3181 7.982C56.2794 7.44067 57.3714 7.17 58.5941 7.17C59.8261 7.17 60.9134 7.44067 61.8561 7.982C62.7987 8.514 63.5361 9.242 64.0681 10.166C64.6001 11.0807 64.8661 12.1213 64.8661 13.288C64.8661 14.4547 64.6001 15.4953 64.0681 16.41C63.5361 17.3153 62.7987 18.0293 61.8561 18.552C60.9134 19.0747 59.8261 19.336 58.5941 19.336ZM58.5941 16.382C59.1821 16.382 59.6907 16.2513 60.1201 15.99C60.5587 15.7193 60.8947 15.3507 61.1281 14.884C61.3707 14.408 61.4921 13.8713 61.4921 13.274C61.4921 12.6767 61.3707 12.14 61.1281 11.664C60.8947 11.188 60.5587 10.8147 60.1201 10.544C59.6907 10.264 59.1821 10.124 58.5941 10.124C58.0061 10.124 57.4927 10.264 57.0541 10.544C56.6247 10.8147 56.2887 11.188 56.0461 11.664C55.8034 12.14 55.6821 12.6767 55.6821 13.274C55.6821 13.8713 55.8034 14.408 56.0461 14.884C56.2887 15.3507 56.6247 15.7193 57.0541 15.99C57.4927 16.2513 58.0061 16.382 58.5941 16.382ZM75.6108 11.594L72.8388 19H69.4648L65.9228 7.506H69.7028L71.6348 15.178L74.3648 7.73H76.8708L79.5728 15.178L81.5188 7.506H85.2988L81.7708 19H78.3968L75.6108 11.594Z" fill="black"/>
</svg>
