<svg width="25" height="25" viewBox="0 0 25 25" fill="none" xmlns="http://www.w3.org/2000/svg">
<path d="M19.7546 2.38181H4.33637C3.00655 2.38181 1.92728 3.46108 1.92728 4.7909V20.2091C1.92728 21.5389 3.00655 22.6182 4.33637 22.6182H19.7546C21.0844 22.6182 22.1636 21.5389 22.1636 20.2091V4.7909C22.1636 3.46108 21.0844 2.38181 19.7546 2.38181ZM8.19091 10.0909V19.2454H5.3V10.0909H8.19091ZM5.3 7.42644C5.3 6.7519 5.87819 6.23635 6.74546 6.23635C7.61273 6.23635 8.15719 6.7519 8.19091 7.42644C8.19091 8.10099 7.65128 8.64544 6.74546 8.64544C5.87819 8.64544 5.3 8.10099 5.3 7.42644ZM18.7909 19.2454H15.9C15.9 19.2454 15.9 14.7838 15.9 14.4273C15.9 13.4636 15.4182 12.5 14.2136 12.4807H14.1751C13.0091 12.4807 12.5273 13.4733 12.5273 14.4273C12.5273 14.8657 12.5273 19.2454 12.5273 19.2454H9.63637V10.0909H12.5273V11.3244C12.5273 11.3244 13.4572 10.0909 15.3266 10.0909C17.2395 10.0909 18.7909 11.4063 18.7909 14.0707V19.2454Z" fill="white"/>
</svg>
