<svg width="20" height="16" viewBox="25 0 20 16" fill="none" xmlns="http://www.w3.org/2000/svg">
<path id="Union (Stroke)" fill-rule="evenodd" clip-rule="evenodd" d="M30.2174 15.3582C30.0701 15.3438 29.924 15.3236 29.7799 15.2978C29.5632 15.2591 29.3838 15.1075 29.3093 14.9004C29.2347 14.6933 29.2765 14.4622 29.4188 14.2943C29.7497 13.9037 29.9841 13.4305 30.0872 12.9107C30.106 12.8161 30.0687 12.6508 29.8784 12.4655C28.5253 11.1484 27.6846 9.36088 27.6846 7.38462C27.6846 3.2569 31.3178 0 35.6846 0C40.0513 0 43.6846 3.2569 43.6846 7.38462C43.6846 11.5123 40.0513 14.7692 35.6846 14.7692C35.0009 14.7692 34.3364 14.69 33.7015 14.5406C32.8493 15.0753 31.8407 15.3846 30.7615 15.3846C30.5781 15.3846 30.3965 15.3757 30.2174 15.3582Z" fill="#5D5FEF"/>
</svg>
