<svg width="91" height="93" viewBox="0 0 91 93" fill="none" xmlns="http://www.w3.org/2000/svg">
<path d="M1.23918 77.9985C4.70825 86.4639 10.3646 88.2259 14.3415 86.4638C22.0326 83.0562 42.0115 79.2487 62.5305 88.1984C89.7069 100.052 95.4891 82.1681 86.8158 64.0782C78.1425 45.9882 75.2027 27.6944 85.2013 17.6156C95.2 7.53669 82.1157 -8.23031 58.8795 8.18204C43.8634 18.7883 32.8433 16.4266 26.9255 13.4282C21.3482 10.6024 15.1456 7.64816 9.3343 9.95484C2.28296 12.7539 -0.495483 18.8223 10.2328 32.3793C25.4357 51.5907 -6.53722 59.0235 1.23918 77.9985Z" fill="#F2F7FF"/>
<path d="M15.3641 36.7607H69.3534V78.2818C69.3534 78.3663 69.3198 78.4474 69.26 78.5072C69.2002 78.567 69.1191 78.6006 69.0346 78.6006H15.6829C15.5983 78.6006 15.5172 78.567 15.4574 78.5072C15.3976 78.4474 15.3641 78.3663 15.3641 78.2818V36.7607Z" fill="#FEBB94"/>
<path d="M55.8092 20.4893H30.7053L15.3641 36.7603H69.3534L55.8092 20.4893Z" fill="#EF6A77"/>
<path d="M20.4778 13.9814L30.7053 20.4899L15.364 36.7609L3.74181 27.9281L20.4778 13.9814Z" fill="#FEBB94"/>
<path d="M66.0367 13.9814L55.8092 20.4899L69.3534 36.7609L82.7726 27.9281L66.0367 13.9814Z" fill="#FEBB94"/>
<path d="M37.3007 14.314C37.5893 14.1772 37.8139 13.9341 37.9274 13.6356C38.041 13.337 38.0348 13.0061 37.9101 12.7121L33.3091 1.86306C33.244 1.70939 33.1484 1.57048 33.0282 1.45469C32.908 1.3389 32.7656 1.24862 32.6095 1.18928C32.4535 1.12993 32.2871 1.10275 32.1203 1.10937C31.9536 1.11599 31.7898 1.15627 31.639 1.22778L30.7526 1.64809C30.6018 1.7196 30.467 1.82087 30.3563 1.94582C30.2456 2.07076 30.1614 2.21679 30.1086 2.37514C30.0558 2.53348 30.0355 2.70087 30.0491 2.86723C30.0626 3.03359 30.1097 3.1955 30.1874 3.34322L35.6747 13.7719C35.8234 14.0545 36.0757 14.2688 36.3787 14.3698C36.6817 14.4709 37.0121 14.4509 37.3007 14.314Z" fill="#418DF9"/>
<path d="M43.069 13.2619C43.2779 13.247 43.4729 13.152 43.6134 12.9967C43.7539 12.8414 43.8289 12.6378 43.8228 12.4285L43.5955 4.70493C43.5923 4.59553 43.567 4.48791 43.5211 4.38854C43.4752 4.28917 43.4098 4.2001 43.3286 4.12669C43.2474 4.05328 43.1522 3.99704 43.0487 3.96136C42.9453 3.92567 42.8357 3.91128 42.7265 3.91903L42.0848 3.96476C41.9756 3.97253 41.8692 4.00228 41.7719 4.05223C41.6745 4.10218 41.5883 4.17129 41.5183 4.25541C41.4484 4.33954 41.3961 4.43693 41.3648 4.54176C41.3334 4.64658 41.3236 4.75665 41.3358 4.86538L42.2048 12.5433C42.2283 12.7514 42.3313 12.9424 42.4924 13.0763C42.6535 13.2103 42.8601 13.2767 43.069 13.2619Z" fill="#418DF9"/>
<path d="M47.5222 16.1171C48.0967 16.4493 48.9033 16.1445 49.3506 15.426L57.2941 2.66868C57.7686 1.90656 57.6562 0.977694 57.0468 0.625367L56.1974 0.134342C55.588 -0.21805 54.7269 0.14786 54.3031 0.939305L47.209 14.1876C46.8095 14.9338 46.9476 15.7849 47.5222 16.1171Z" fill="#418DF9"/>
</svg>
