<svg width="35" height="32" viewBox="0 0 35 32" fill="none" xmlns="http://www.w3.org/2000/svg">
<path fill-rule="evenodd" clip-rule="evenodd" d="M11.597 6.84671C11.597 3.47657 14.329 0.744522 17.6992 0.744522C21.0693 0.744522 23.8014 3.47657 23.8014 6.84671C23.8014 10.2169 21.0693 12.9489 17.6992 12.9489C14.329 12.9489 11.597 10.2169 11.597 6.84671Z" fill="#297AFF"/>
<path fill-rule="evenodd" clip-rule="evenodd" d="M23.8014 11.7285C23.8014 9.03235 25.987 6.84671 28.6831 6.84671C31.3792 6.84671 33.5649 9.03235 33.5649 11.7285C33.5649 14.4246 31.3792 16.6102 28.6831 16.6102C25.987 16.6102 23.8014 14.4246 23.8014 11.7285Z" fill="#297AFF"/>
<path fill-rule="evenodd" clip-rule="evenodd" d="M1.83347 11.7285C1.83347 9.03235 4.01911 6.84671 6.71523 6.84671C9.41134 6.84671 11.597 9.03235 11.597 11.7285C11.597 14.4246 9.41134 16.6102 6.71523 16.6102C4.01911 16.6102 1.83347 14.4246 1.83347 11.7285Z" fill="#297AFF"/>
<path fill-rule="evenodd" clip-rule="evenodd" d="M8.43989 20.4628C10.3893 17.4147 13.8074 15.3898 17.6992 15.3898C21.5915 15.3898 25.0099 17.4152 26.9592 20.4639C28.3068 22.5715 28.8898 25.1129 28.6163 27.5908C28.5736 27.978 28.3486 28.3216 28.0107 28.5155C24.972 30.259 21.4501 31.2555 17.6992 31.2555C13.9482 31.2555 10.4263 30.259 7.38768 28.5154C7.04977 28.3216 6.82474 27.978 6.782 27.5908C6.50846 25.1124 7.09179 22.5706 8.43989 20.4628Z" fill="#297AFF"/>
<path d="M6.44231 19.0571C6.42271 19.0872 6.40324 19.1174 6.38388 19.1476C4.81283 21.6041 4.09386 24.5295 4.31457 27.4135C3.32512 27.2633 2.36509 27.0215 1.44363 26.697L1.25657 26.6311C0.915313 26.5109 0.67687 26.201 0.648171 25.8404L0.632439 25.6427C0.619574 25.481 0.613037 25.3178 0.613037 25.1533C0.613037 21.8746 3.19881 19.1998 6.44231 19.0571Z" fill="#297AFF"/>
<path d="M31.0843 27.4135C31.305 24.53 30.5864 21.6052 29.0159 19.149C28.9963 19.1183 28.9765 19.0877 28.9566 19.0571C32.1998 19.2002 34.7853 21.8748 34.7853 25.1533C34.7853 25.3178 34.7788 25.481 34.7659 25.6427L34.7502 25.8404C34.7215 26.201 34.483 26.5109 34.1418 26.6311L33.9547 26.697C33.0334 27.0215 32.0736 27.2632 31.0843 27.4135Z" fill="#297AFF"/>
</svg>
