 <svg width="31" height="30" viewBox="0 0 20 20" fill="none" xmlns="http://www.w3.org/2000/svg">
<circle cx="10" cy="10" r="10" fill="#6DDA8B"/>
<path d="M6.554 5.00481C6.391 4.98171 6.22739 5.04273 6.11932 5.16692C6.01126 5.29112 5.97344 5.46159 6.01886 5.61983L6.93455 8.81057C7.0541 9.22715 7.43509 9.51418 7.86848 9.51418H11.8298C12.0981 9.51418 12.3156 9.73168 12.3156 9.99999C12.3156 10.2683 12.0981 10.4858 11.8298 10.4858H7.86849C7.4351 10.4858 7.05411 10.7728 6.93456 11.1894L6.01886 14.3802C5.97344 14.5384 6.01126 14.7089 6.11932 14.8331C6.22739 14.9573 6.391 15.0183 6.554 14.9952C10.3354 14.4592 13.7542 12.7975 16.4601 10.361C16.5624 10.2689 16.6208 10.1377 16.6208 10C16.6208 9.86232 16.5624 9.7311 16.4601 9.63897C13.7542 7.20254 10.3354 5.54077 6.554 5.00481Z" fill="white"/>
</svg>
