<svg width="31" height="30" viewBox="0 0 31 30" fill="none" xmlns="http://www.w3.org/2000/svg">
<circle cx="15.482" cy="15.062" r="14.7818" fill="#5D5FEF"/>
<path fill-rule="evenodd" clip-rule="evenodd" d="M19.4386 16.0709C18.8814 18.1504 16.7439 19.3845 14.6643 18.8273C13.9775 18.6433 13.3843 18.2877 12.9167 17.8193L12.6959 17.5985L14.4205 17.5982C14.714 17.5981 14.952 17.3601 14.9519 17.0665C14.9519 16.7729 14.7138 16.535 14.4203 16.535L11.4127 16.5356C11.2717 16.5356 11.1366 16.5916 11.0369 16.6913C10.9372 16.791 10.8812 16.9263 10.8813 17.0672L10.8819 20.0736C10.882 20.3672 11.12 20.6052 11.4136 20.6051C11.7071 20.605 11.9451 20.367 11.945 20.0734L11.9447 18.3507L12.1643 18.5703C12.7604 19.1675 13.5171 19.6205 14.3892 19.8542C17.0358 20.5634 19.7563 18.9927 20.4655 16.346C20.5414 16.0625 20.3732 15.771 20.0896 15.695C19.806 15.619 19.5145 15.7873 19.4386 16.0709ZM20.3096 13.4326C20.4093 13.3329 20.4652 13.1977 20.4652 13.0567L20.4647 10.0502C20.4647 9.75664 20.2267 9.51869 19.9331 9.51874C19.6395 9.51879 19.4016 9.75681 19.4016 10.0504L19.4019 11.7733L19.1823 11.5537C18.5862 10.9566 17.8293 10.5034 16.9573 10.2698C14.3107 9.56058 11.5902 11.1312 10.881 13.7779C10.8051 14.0615 10.9733 14.3529 11.2569 14.4289C11.5405 14.5049 11.832 14.3366 11.9079 14.0531C12.4651 11.9735 14.6026 10.7395 16.6822 11.2967C17.369 11.4807 17.9623 11.8363 18.4298 12.3047L18.6504 12.5252L16.9267 12.5252C16.6331 12.5252 16.3951 12.7632 16.3951 13.0568C16.3951 13.3504 16.6331 13.5884 16.9267 13.5884H19.9337C20.0747 13.5884 20.2099 13.5323 20.3096 13.4326Z" fill="white"/>
</svg>
