<svg viewBox="0 0 24 25" fill="currentColor" xmlns="http://www.w3.org/2000/svg">
<path d="M2.01416 10.1625C2.01416 9.3121 2.65412 8.62272 3.44355 8.62272C4.23299 8.62272 4.87295 9.3121 4.87295 10.1625V19.4011C4.87295 20.2515 4.23299 20.9409 3.44355 20.9409C2.65412 20.9409 2.01416 20.2515 2.01416 19.4011V10.1625Z" fill="currentColor"/>
<path d="M13.4493 3.69545V2.09428C13.4493 1.76449 13.6091 1.44622 13.9009 1.34656C14.1192 1.27202 14.3517 1.23181 14.5928 1.23181C15.8559 1.23181 16.8799 2.33482 16.8799 3.69545C16.8799 4.92115 16.6721 6.09459 16.2925 7.17714C16.0591 7.84277 16.4824 8.62272 17.1429 8.62272H20.0245C21.4455 8.62272 22.6101 9.86633 22.4788 11.3905C22.2579 13.9523 21.7337 16.4193 20.9451 18.7494C20.4859 20.1063 19.2496 20.9409 17.9088 20.9409H14.2592C13.7266 20.9409 13.2013 20.8073 12.725 20.5508L9.5996 18.8674C9.12325 18.6108 8.59799 18.4773 8.06541 18.4773H6.58822V9.85454H7.68966C8.47231 9.85454 9.12802 9.26016 9.53324 8.53887C10.0918 7.54463 10.9675 6.78021 12.0092 6.40827C12.5041 6.23157 12.9853 5.93237 13.1663 5.40566C13.3493 4.87291 13.4493 4.29676 13.4493 3.69545Z" fill="currentColor"/>
</svg>
