<svg viewBox="0 0 14 15" fill="currentColor" xmlns="http://www.w3.org/2000/svg">
<path d="M0.700195 8.8125C0.700195 9.33027 1.09195 9.75 1.5752 9.75C2.05844 9.75 2.4502 9.33027 2.4502 8.8125V3.1875C2.4502 2.66973 2.05844 2.25 1.5752 2.25C1.09195 2.25 0.700195 2.66973 0.700195 3.1875V8.8125Z" fill="currentColor"/>
<path d="M7.7002 12.75V13.7249C7.7002 13.9257 7.79801 14.1195 7.97666 14.1801C8.11027 14.2255 8.25256 14.25 8.4002 14.25C9.17339 14.25 9.80019 13.5784 9.80019 12.75C9.80019 12.0037 9.67303 11.2893 9.44065 10.6302C9.29777 10.2249 9.55688 9.75 9.96122 9.75H11.7252C12.595 9.75 13.308 8.99282 13.2275 8.06483C13.0924 6.50504 12.7715 5.00298 12.2887 3.58429C12.0076 2.75814 11.2508 2.25 10.4301 2.25H8.19594C7.86992 2.25 7.54839 2.33133 7.25679 2.48754L5.3436 3.51246C5.052 3.66867 4.73047 3.75 4.40445 3.75H3.5002V9H4.17444C4.65354 9 5.05493 9.36189 5.30298 9.80105C5.64491 10.4064 6.18093 10.8718 6.81862 11.0983C7.12157 11.2059 7.41615 11.388 7.52693 11.7087C7.63899 12.0331 7.7002 12.3839 7.7002 12.75Z" fill="currentColor"/>
</svg>
